<?xml version="1.0" encoding="utf-8"?>
<!-- Generator: Adobe Illustrator 15.0.2, SVG Export Plug-In . SVG Version: 6.00 Build 0)  -->
<!DOCTYPE svg PUBLIC "-//W3C//DTD SVG 1.1//EN" "http://www.w3.org/Graphics/SVG/1.1/DTD/svg11.dtd">
<svg version="1.1" id="Layer_1" xmlns="http://www.w3.org/2000/svg" xmlns:xlink="http://www.w3.org/1999/xlink" x="0px" y="0px"
	 width="279.166px" height="80.744px" viewBox="0 0 279.166 80.744" enable-background="new 0 0 279.166 80.744"
	 xml:space="preserve">
<g>
	<rect y="36.821" fill="none" width="58.992" height="28.654"/>
	<path fill="#FFFFFF" d="M1.584,37.684h3.625v7.152h0.048c0.36-0.624,0.744-1.2,1.128-1.775l3.648-5.377h4.513l-5.353,6.889
		l5.616,9.289h-4.248l-3.984-6.984L5.208,48.58v5.281H1.584V37.684z"/>
	<path fill="#FFFFFF" d="M16.44,50.092c0.96,0.505,2.496,1.009,4.057,1.009c1.68,0,2.568-0.696,2.568-1.752
		c0-1.009-0.768-1.585-2.712-2.257c-2.688-0.959-4.464-2.447-4.464-4.8c0-2.76,2.328-4.849,6.12-4.849
		c1.848,0,3.168,0.36,4.128,0.816l-0.816,2.928c-0.624-0.313-1.8-0.768-3.36-0.768c-1.584,0-2.352,0.745-2.352,1.561
		c0,1.031,0.888,1.487,3,2.279c2.856,1.057,4.176,2.545,4.176,4.824c0,2.713-2.064,5.018-6.504,5.018
		c-1.848,0-3.672-0.505-4.584-1.009L16.44,50.092z"/>
	<path fill="#FFFFFF" d="M32.928,37.684v9.289c0,2.808,1.08,4.225,2.928,4.225c1.92,0,2.976-1.345,2.976-4.225v-9.289h3.648v9.072
		c0,4.992-2.52,7.369-6.745,7.369c-4.08,0-6.457-2.28-6.457-7.417v-9.024H32.928z"/>
</g>
<path fill="none" stroke="#FABB15" stroke-width="2" stroke-miterlimit="10" d="M73.46,21.433
	c-15.695-10.799-25.952,28.674-24.728,38.28c3.627,28.448,32.628,1.968,35.59-13.725c1.357-7.193,0.055-17.135-7.531-20.483
	c-9.159-4.044-14.809,6.5-18.641,13.124c-4.086,7.063-8.658,20.297-5.449,28.537c4.485,11.519,16.023,5.472,21.453-1.564
	c6.21-8.05,15.561-36.84,2.033-42.288c-15.123-6.091-29.961,27.513-27.455,39.418c1.914,9.089,9.456,10.655,17.353,7.186
	c9.757-4.287,15.893-16.305,16.741-26.435c0.563-6.738,1.123-18.822-8.219-20.022C64.094,22.109,57.289,39.209,55.918,47.23
	c-0.539,3.15-2.314,14.623-0.416,17.649c3.839,6.118,11.993-0.031,15.801-3.234c8.056-6.776,12.52-18.101,10.882-28.815
	c-4.89-31.993-48.262,24.298-21.912,29.314c10.84,2.064,15.463-11.655,16.568-20.241c1.441-11.194-3.868-23.613-14.632-12.095
	c-6.283,6.723-11.373,19.046-10.81,28.455C52.158,70.919,69.98,70.673,74.127,60.1"/>
<path fill="none" stroke="#FABB15" stroke-width="2" stroke-miterlimit="10" d="M91.46,30.1c5.171-2.153,6.735-5.892,13.182-5.833
	c-0.155,15.214-5.541,31.676-9.724,46.24c0.584-7.529,7.699-20.063,11.301-26.958c3.842-7.354,12.766-18.584,21.889-18.643
	c2.988,7.326-2.188,18.346-3.481,25.823c-1.187,6.863-2.904,16.151-3.166,22.036"/>
<path fill="none" stroke="#FABB15" stroke-width="2" stroke-miterlimit="10" d="M94.793,30.766c0.84,1.28,5.212-1.701,7.814-3.229
	c1.305,6.504-2.24,14.441-3.816,20.709c-1.778,7.072-2.505,15.677-5.93,22.335c1.033-10.861,13.768-45.682,27.895-43.178
	c10.602,1.88,4.072,11.696,2.205,19.346c-1.929,7.897-3.762,16.543-3.501,24.685"/>
<path fill="none" stroke="#FABB15" stroke-width="2" stroke-miterlimit="10" d="M90.793,32.766
	c2.569-2.37,10.713-10.98,14.873-9.325c4.867,1.938,1.943,11.199,1.127,15.175c-1.817,8.854-3.478,24.676-8.631,31.938
	c3.807-12.876,13.596-38.958,28.611-43.015c1.861,5.328-2.914,17.85-4.109,23.779c-1.484,7.367-5.021,17.459-4.537,22.781"/>
<path fill="none" stroke="#FABB15" stroke-width="2" stroke-miterlimit="10" d="M91.46,34.1c5.589-2.497,8.747-9.467,15.128-10.375
	c3.391,5.526-4.503,20.294-6.646,26.248c-2.702,7.506-4.557,16.154-7.746,23.214c2.602-9.067,7.895-18.632,13.115-26.466
	c4.016-6.027,12.705-18.269,20.273-19.164c2.793,4.468-4.281,18.052-6.127,23.225c-2.871,8.051-3.863,15.53-6.129,23.728
	c0.521-0.552,1.01-1.133,1.465-1.743"/>
<path fill="none" stroke="#FABB15" stroke-width="2" stroke-miterlimit="10" d="M149.46,7.433
	c4.382,6.255-9.555,30.955-11.349,39.331c-1.275,5.955-2.399,12.406-1.984,18.521c0.936,13.792,8.744,5.144,15.333-1.185"/>
<path fill="none" stroke="#FABB15" stroke-width="2" stroke-miterlimit="10" d="M148.793,8.766
	c1.795,15.297-12.935,28.151-14.714,43.2c-0.593,5.012-1.685,16.875,2.655,20.188c7.009,5.348,16.904-11.11,18.059-17.388"/>
<path fill="none" stroke="#FABB15" stroke-width="2" stroke-miterlimit="10" d="M152.793,9.433
	c-2.494,13.79-8.945,27.263-12.848,40.521c-1.488,5.053-3.469,12.848-1.864,18.125c3.039,9.996,12.075,3.43,15.379-3.979"/>
<path fill="none" stroke="#FABB15" stroke-width="2" stroke-miterlimit="10" d="M153.46,11.433
	c-3.443,11.758-5.871,23.919-9.886,35.36c-2.162,6.159-10.872,31.318,3.219,28.64"/>
<path fill="none" stroke="#FABB15" stroke-width="2" stroke-miterlimit="10" d="M146.127,13.433
	c-1.33,12.971-28.609,63.496,0,60.667"/>
<path fill="none" stroke="#FABB15" stroke-width="2" stroke-miterlimit="10" d="M189.271,30.583
	c5.17-2.153,6.734-5.892,13.182-5.833c-0.156,15.214-5.541,31.676-9.724,46.24c0.585-7.529,7.699-20.063,11.302-26.958
	c3.841-7.354,12.764-18.584,21.888-18.643c2.988,7.326-2.188,18.346-3.481,25.823c-1.187,6.863-2.904,16.151-3.166,22.036"/>
<path fill="none" stroke="#FABB15" stroke-width="2" stroke-miterlimit="10" d="M192.605,31.249c0.84,1.28,5.211-1.701,7.813-3.229
	c1.306,6.504-2.24,14.441-3.816,20.709c-1.778,7.072-2.505,15.677-5.931,22.335c1.035-10.861,13.77-45.682,27.896-43.178
	c10.601,1.88,4.072,11.696,2.204,19.346c-1.929,7.897-3.763,16.543-3.501,24.685"/>
<path fill="none" stroke="#FABB15" stroke-width="2" stroke-miterlimit="10" d="M188.605,33.249
	c2.568-2.37,10.711-10.98,14.873-9.325c4.867,1.938,1.942,11.199,1.127,15.175c-1.818,8.854-3.479,24.676-8.632,31.938
	c3.808-12.876,13.595-38.958,28.611-43.015c1.861,5.328-2.915,17.85-4.109,23.779c-1.484,7.367-5.021,17.459-4.538,22.781"/>
<path fill="none" stroke="#FABB15" stroke-width="2" stroke-miterlimit="10" d="M189.271,34.583
	c5.589-2.497,8.746-9.467,15.127-10.375c3.391,5.526-4.502,20.294-6.646,26.248c-2.702,7.506-4.556,16.154-7.746,23.214
	c2.603-9.067,7.894-18.632,13.114-26.466c4.018-6.027,12.705-18.269,20.274-19.164c2.793,4.468-4.281,18.052-6.126,23.225
	c-2.871,8.051-3.863,15.53-6.13,23.728c0.522-0.552,1.011-1.133,1.466-1.743"/>
<path fill="none" stroke="#FABB15" stroke-width="2" stroke-miterlimit="10" d="M240.127,45.433
	c6.569,1.396,27.811-2.938,20.107-13.391c-8.141-11.048-18.17,8.498-20.105,14.504c-2.517,7.808-4.342,22.772,7.336,24.291
	c11.703,1.522,27.271-18.123,30.012-27.999c-9.181,6.21-11.683,20.033-23.982,23.309c-12.52,3.335-17.178-7.931-14.932-18.85
	c1.388-6.74,12.921-30.68,23.193-19.824c7.877,8.324-9.895,22.152-18.039,19.409c10.828,3.218,20.479-1.742,18.958-14.314
	c-1.955-16.156-16.998-2.681-21.445,4.865c-5.028,8.532-7.558,23.271,0.735,30.045c11.556,9.439,28.484-14.728,33.892-24.319
	c-9.968,7.136-12.659,19.829-26.56,23.152c-15.027,3.594-13.927-9.165-11.351-20.146c1.642-7.001,3.224-15.299,9.868-19.542
	c3.125-1.995,12.783-5.16,16.274-2.483c4.187,3.211,1.595,9.919-0.403,13.762c-3.393,6.525-7.949,8.144-14.637,9.381
	c8.5,1.327,21.116-9.379,14.421-18.562c-9.146-12.543-22.946,9.906-25.408,16.585c-3.024,8.199-4.159,25.075,5.063,29.884
	c9.801,5.109,30.734-14.126,32.335-23.757"/>
<path fill="none" stroke="#FABB15" stroke-width="2" stroke-miterlimit="10" d="M176.127,66.766
	c0.654,6.306-5.402,9.887-10.646,7.76c-6.532-2.65-6.415-10.071-5.185-15.776c2.586-12.002,11.758-20.461,15.529-31.593
	c-7.804,6.225-11.733,20.73-12.9,30.313c-1.945,15.982,10.73,20.798,18.245,5.518c-3.05,2.795-9.375,10.147-14.534,8.57
	c-5.651-1.729-4.311-9.773-3.711-14.903c0.643-5.482,7.395-29.854,13.944-28.487c-0.452,8.085-6.567,15.222-9.206,22.745
	c-1.324,3.772-4.07,9.457-2.966,13.705c1.243,4.779,6.479,9.736,10.762,4.815"/>
<path fill="none" stroke="#FABB15" stroke-width="2" stroke-miterlimit="10" d="M178.127,4.766c0.217-3.206,3.602-4.851,5.799-1.973
	c3.01,3.957-3.155,15.701-8.646,13.923c-5.203-1.686-1.648-10.067,1.504-12.054c8.146-5.134,8.334,5.973,2.248,8.68
	c-0.514-2.174-1.13-2.635,0.801-5.032c-2.799-0.776-3.867,1.149-3.586,4.317c5.856,2.645,7.075-8.038,3.473-10.484
	c-19.104,10.106,5.958,21.513,4.281,4.755c-1.544-15.424-18.27,3.556-7.597,9.905c-13.834-3.343,8.681-24.205,7.29-8.72
	c-0.41,4.579-7.021,10.588-10.176,5.262c-2.536-4.282,4.435-12.057,6.609-5.245"/>
</svg>
