<?xml version="1.0" encoding="utf-8"?>
<!-- Generator: Adobe Illustrator 15.0.2, SVG Export Plug-In . SVG Version: 6.00 Build 0)  -->
<!DOCTYPE svg PUBLIC "-//W3C//DTD SVG 1.1//EN" "http://www.w3.org/Graphics/SVG/1.1/DTD/svg11.dtd">
<svg version="1.1" id="Layer_1" xmlns="http://www.w3.org/2000/svg" xmlns:xlink="http://www.w3.org/1999/xlink" x="0px" y="0px"
	 width="624.765px" height="1097.634px" viewBox="0 0 624.765 1097.634" enable-background="new 0 0 624.765 1097.634"
	 xml:space="preserve">
<g>
	<path fill="#D88257" d="M83.396,84.384"/>
	<path fill="#814B1F" d="M90.241,104.199v9.908h-7.335v-9.908v-7.556C82.906,96.643,86.455,101.771,90.241,104.199z"/>
	<path fill="#814B1F" d="M137.372,89.023l0.905,8.867l-4.893,16.217h-6.271v-8.494c0,0,3.063-1.415,6.118-6.356
		C133.23,99.257,136.889,93.319,137.372,89.023z"/>
	<path fill="#FCC9A8" d="M90.241,104.199v17.478c0,0,19.278,9.494,36.872,0v-17.478H90.241z"/>
	<path fill="#F2AA79" d="M90.241,100.956v20.721c0,0,11.761,4.385,17.432,4.22l1.003-0.956l0.03-18.771L90.241,100.956z"/>
	<path fill="#F2AA79" d="M115.864,109.632c21.51-3.731,21.507-20.609,21.507-20.609V69.319l0.003-3.998v-2.347c0,0,0,2.347,0-19.001
		c0-21.347-27.991-20.876-27.991-20.876c-29.887,0-28.938,22.05-28.938,22.05v19.705l-0.003,3.998v2.346c0,0,0-4.457,0,16.891
		c0,12.019,13.39,19.51,21.647,21.685C102.09,109.771,110.274,110.602,115.864,109.632z"/>
	<path fill="#FCC9A8" d="M109.384,23.096v33.077c0,0,8.927-9.148,18.459,0c0,0,0.73,6.979,1.703,10.427
		c0.974,3.445,7.826,2.719,7.826,2.719V42.057C137.372,42.057,137.411,25.308,109.384,23.096z"/>
	<polygon fill="#FCE2D4" points="109.384,61.041 112.753,61.041 114.7,80.753 109.384,80.753 	"/>
	<ellipse fill="#FCE2D4" cx="96.447" cy="59.944" rx="6.206" ry="4.016"/>
	<ellipse fill="#FCE2D4" cx="120.906" cy="59.944" rx="6.206" ry="4.016"/>
	<path fill="#D88257" d="M90.241,59.795l12.413,0.149c0,0,0.113-3.837-6.004-4.111C96.649,55.833,90.75,55.616,90.241,59.795z"/>
	<path fill="#D88257" d="M114.7,59.795l12.412,0.149c0,0,0.114-3.837-6.004-4.111C121.108,55.833,115.209,55.616,114.7,59.795z"/>
	<path fill="#D88257" d="M112.156,82.378l5.088,0.063c0,0,0.047-1.574-2.462-1.688C114.782,80.753,112.364,80.666,112.156,82.378z"
		/>
	<path fill="#D88257" d="M101.583,82.378l5.089,0.063c0,0,0.046-1.574-2.462-1.688C104.21,80.753,101.792,80.666,101.583,82.378z"/>
	<path fill="#D88257" d="M103.494,110.176c5.925,0.656,12.37-0.544,12.37-0.544c-0.23-3.729-6.956-3.826-6.956-3.826
		c-3.059-0.432-2.237-5.104-2.237-5.104c0.173-3.349,2.405-3.719,2.405-3.719c5.338-0.409,8.782-4.449,8.782-4.449
		c-17.896,0.004-20.829-3.064-20.829-3.064s2.961-7.279-3.981-15.767c-6.943-8.487-12.604-8.853-12.604-8.853
		s-0.003,17.678-0.003,23.234c0,5.556,3.134,9.588,3.134,9.588c3.909,6.099,11.891,9.907,15.907,11.414
		C99.484,109.087,101.466,109.953,103.494,110.176z"/>
	<path fill="#BD7151" d="M97.031,89.471c0,0,2.247,3.068,5.105,3.068c2.858,0,15.723,0,15.723,0s3.063-1.637,3.879-3.068H97.031z"/>
	<path fill="#D88257" d="M137.372,82.663c0,0,18.372-23.579,0-28.567V82.663z"/>
	<path fill="#F2AA79" d="M80.443,85.801c0,0-18.371-28.28,0-34.262V85.801z"/>
	<path fill="#814B1F" d="M97.687,31.66h23.396c0,0,8.151,22.17,16.289,24.882c0,0,13.209-1.826,1.681,22.248l-1.678,1.964
		l-0.003,17.297l-6.668,25.043l27.669,11.713c0,0-10.504-34.995-11.521-46.523s-0.338-39.332-0.338-39.332
		s-8.839-33.089-24.775-38.515c0,0-8.319-2.92-15.575,0.878c0,0-12.545-8.137-23.396,6.443c0,0-11.528,17.971-11.189,34.585
		s-0.007,30.855-0.007,30.855s-4.676,15.114-9.182,23.737l-2.129,7.171c0,0-3.261,27.75,7.25,28.429
		c10.511,0.678,17.477-29.961,17.477-34.37c0-2.105,0.006-7.729-2.41-12.077c-2.324-4.183-2.034-15.336-2.034-15.336
		s-2.068,1.688-2.861-1.964c-3.265-15.015-2.662-17.838-2.662-17.838s-0.496-4.409,2.193-6.017c0,0,3.082-1.423,4.413,0.896
		C83.228,58.621,94.974,41.832,97.687,31.66z"/>
	<path fill="#F1668B" d="M127.112,105.374"/>
	<path fill="#DEDBDC" d="M148.166,52.355"/>
	<path fill="#DEDBDC" d="M69.873,52.355"/>
	<path fill="#DEDBDC" d="M69.873,50.027"/>
	<path fill="#A76929" d="M107.128,19.529c0,0,12.854-4.854,22.956,0c10.103,4.854,8.687,30.371,10.751,31.854
		c2.065,1.482-15.427-7.606-16.854-24.363C122.555,10.264,107.128,19.529,107.128,19.529z"/>
	<path d="M71.197,503.379l-21.136,16.664c-0.425,8.666,4.474,8.148,7.617,9.334c4.967,1.871,16.674-1.797,16.674-1.797l8.397-7.08
		l18.834-12.457v-7.334l-25.774-5.332L71.197,503.379z"/>
	<path fill="#31429B" d="M64.294,282.35l94.209,7.129l9.689-32.918l-0.108-109.624c0,0,0.769-3.348-1.778-9.794
		c-2.907-7.354-18.199-11.004-18.199-11.004l-15.282-4.462l-12.623,3.795l-11.767,14.155l-2.456,4.017L94.97,125.63l-11.934-3.954
		c0,0-28.219,8.157-31.792,12.689c-4.457,5.657-4.457,12.69-4.457,12.69l-6.726,103.66l9.13,19.384l4.587,14.539L64.294,282.35"/>
	<path fill="#485EAB" d="M108.706,132.08l-0.271,135.632c0,0,0.961,9.168-6.853,9.514c-7.813,0.348-35.289,0-35.289,0
		s-6.216,1.203-6.513-10.8c-0.297-12.004,0-136.941,0-136.941l23.255-7.808L108.706,132.08z"/>
	<path fill="#FFFFFF" d="M95.555,123.396c0,0,12.543,5.722,25.761,0l-9.946,16.006l-5.52,0.423l-10.295-15.841"/>
	<polygon fill="#DEDBDC" points="134.294,113.428 133.966,113.673 119.834,124.198 111.022,138.136 111.022,139.825 
		121.868,126.626 136.328,137.288 134.294,114.695 	"/>
	<polygon fill="#DEDBDC" points="82.577,113.428 82.906,113.673 97.037,124.198 105.85,138.136 105.85,139.825 95.003,126.626 
		80.543,137.288 82.577,114.695 	"/>
	<path fill="#721221" d="M109.167,493.042c0,6.627-5.373,12-12,12H77.294c-6.627,0-12-5.373-12-12V282.35c0-6.627,5.373-12,12-12
		h19.873c6.627,0,12,5.373,12,12V493.042z"/>
	<path fill="#D88257" d="M50.061,304.272l4.717-20.068l10.516-2.289v33.025C65.294,314.94,54.821,312.94,50.061,304.272z"/>
	<path fill="#F2AA79" d="M165.034,303.708l-4.717-20.068l-10.516-2.289v33.025C149.801,314.375,160.274,312.375,165.034,303.708z"/>
	<path d="M145.464,503.379l21.135,16.664c0.426,8.666-4.325,8.666-7.616,9.334c-3.292,0.666-16.139-1.623-16.139-1.623l-8.933-7.254
		l-18.834-12.457v-7.334l25.774-5.332L145.464,503.379z"/>
	<path fill="#831F33" d="M152.64,493.042c0,6.627-5.373,12-12,12h-19.873c-6.627,0-12-5.373-12-12V282.35c0-6.627,5.373-12,12-12
		h19.873c6.627,0,12,5.373,12,12V493.042z"/>
	<path fill="#831F33" d="M69.634,378.709c0,0,3.191,14.971,17.597,8.986v109.711c0,0-14.988,3.697-15.792,0
		S69.634,378.709,69.634,378.709z"/>
	<polygon fill="#A5A4A4" points="127.112,113.428 134.294,113.428 127.112,118.777 	"/>
	<path fill="#A5A4A4" d="M90.241,113.428c-2.395,0.249-7.664,0-7.664,0l7.664,5.708V113.428z"/>
	<path fill="#485EAB" d="M60.758,257.958c0,0-2.821,20.97,10.056,20.97s75.167,0,75.167,0s7.659,0.664,7.659-15.971
		c0-16.636,0-124.522,0-124.522s-19.447,96.45-46.248,96.45c-26.801,0-46.634,0-46.634,0V257.958z"/>
	<rect x="65.294" y="283.141" fill="#721221" width="52.565" height="13.814"/>
	<rect x="65.294" y="276.233" fill="#31429B" width="87.346" height="13.816"/>
</g>
<g>
	<path d="M280.497,503.378l-21.136,16.666c-0.425,8.666,4.474,8.148,7.617,9.332c4.967,1.873,16.674-1.797,16.674-1.797l8.397-7.078
		l18.834-12.457v-7.334l-25.774-5.334L280.497,503.378z"/>
	<path fill="#9C4299" d="M273.594,282.351l94.209,7.129l9.689-32.921l-0.107-109.623c0,0,0.768-3.348-1.778-9.795
		c-2.907-7.354-18.199-11.004-18.199-11.004l-15.282-4.462l-12.623,3.795l-11.767,14.155l-2.456,4.017l-11.01-18.013l-11.934-3.954
		c0,0-28.219,8.157-31.792,12.689c-4.457,5.656-4.457,12.69-4.457,12.69l-6.726,103.66l9.13,19.384l4.587,14.541L273.594,282.351"/>
	<path fill="#FFFFFF" d="M304.855,123.395c0,0,12.543,5.722,25.761,0l-9.946,16.006l-5.52,0.423l-10.295-15.84"/>
	<path fill="#AFA177" d="M318.467,493.041c0,6.629-5.373,12-12,12h-19.873c-6.627,0-12-5.371-12-12V282.351c0-6.629,5.373-12,12-12
		h19.873c6.627,0,12,5.371,12,12V493.041z"/>
	<path fill="#D88257" d="M259.361,304.273l4.717-20.068l10.516-2.289v33.023C274.594,314.939,264.121,312.939,259.361,304.273z"/>
	<path fill="#F2AA79" d="M374.334,303.708l-4.717-20.068l-10.516-2.289v33.023C359.102,314.375,369.575,312.375,374.334,303.708z"/>
	<path d="M354.765,503.378l21.135,16.666c0.426,8.666-4.325,8.666-7.616,9.332c-3.292,0.668-16.139-1.621-16.139-1.621l-8.933-7.254
		l-18.834-12.457v-7.334l25.774-5.334L354.765,503.378z"/>
	<path fill="#C9BC8F" d="M361.94,493.041c0,6.629-5.373,12-12,12h-19.873c-6.627,0-12-5.371-12-12V282.351c0-6.629,5.373-12,12-12
		h19.873c6.627,0,12,5.371,12,12V493.041z"/>
	<path fill="#C9BC8F" d="M278.934,378.71c0,0,3.191,14.971,17.597,8.984v109.713c0,0-14.988,3.697-15.792,0
		S278.934,378.71,278.934,378.71z"/>
	<rect x="276.464" y="279.234" fill="#AFA177" width="51.271" height="13.814"/>
	<path fill="#B14A9C" d="M270.058,257.958c0,0-2.821,20.972,10.056,20.972s75.167,0,75.167,0s7.659,0.664,7.659-15.973
		s0-124.522,0-124.522s-19.447,96.449-46.248,96.449c-26.801,0-46.896-67.149-46.896-67.149L270.058,257.958z"/>
	<path fill="#FCC9A8" d="M324.807,109.103c21.344-3.701,21.34-20.449,21.34-20.449V69.102l0.004-3.967v-2.328c0,0,0,2.328,0-18.854
		c0-21.182-27.773-20.716-27.773-20.716c-29.656,0-28.714,21.88-28.714,21.88v19.552l-0.004,3.968v2.328c0,0,0-4.422,0,16.758
		c0,11.926,13.287,19.36,21.48,21.52C311.14,109.242,319.26,110.066,324.807,109.103z"/>
	<path fill="#BD7151" d="M301.763,103.712v17.342c0,0,19.128,9.421,36.587,0v-17.342H301.763z"/>
	<path fill="#FCC9A8" d="M297.71,100.964v20.561c0,0,12.734,4.352,18.875,4.188l1.087-0.949l0.031-18.625L297.71,100.964z"/>
	<path fill="#F1668B" d="M335.969,104.878"/>
	<path fill="#FFFFFF" d="M302.195,122.461c0,0,20.098,5.678,33.213,0l-16.238,19.348l-4.939,0.005L302.195,122.461"/>
	<path fill="#9C4299" d="M338.35,119.847l18.32,4.865c0,0,15.176,2.992,18.059,9.021c2.527,5.285,1.764,8.029,1.764,8.029
		l-120.358,0.098c0,0,0-5.768,4.423-10.403c3.545-3.716,37.152-11.61,37.152-11.61l4.485,2.614l13.491,19.399h2.691l17.031-19.399
		L338.35,119.847z"/>
	<path fill="#F2AA79" d="M347.77,58.917v21.084C347.77,80.001,358.088,62.057,347.77,58.917z"/>
	<path fill="#F2AA79" d="M289.854,58.917v21.084C289.854,80.001,279.536,62.057,289.854,58.917z"/>
	<path fill="#F3BE9A" d="M318.79,40.672l-11.875,3.978l-0.796,29.795c0,0-1.079,12.568-0.579,19.369
		c0.5,6.803-12.895,3.25-12.895,3.25s2.501,3.558,4.822,5.668c2.321,2.111,11.779,6.617,15.085,7.039
		c3.306,0.42,11.1-2.32,11.1-2.32l4.082-7.16l-4.082-4.394l-5.797-3.253l-0.172-9.367l0.693-25.624L318.79,40.672z"/>
	<path fill="#F2AA79" d="M318.377,23.237v32.821c0,0,8.857-9.078,18.314,0c0,0,0.725,6.926,1.691,10.345
		c0.965,3.42,7.764,2.699,7.764,2.699V42.051C346.147,42.051,346.186,25.432,318.377,23.237z"/>
	<ellipse fill="#F2AA79" cx="305.54" cy="59.801" rx="6.158" ry="3.984"/>
	<ellipse fill="#F2AA79" cx="329.811" cy="59.801" rx="6.158" ry="3.984"/>
	<path fill="#D88257" d="M299.382,59.652l12.316,0.149c0,0,0.112-3.808-5.958-4.081C305.74,55.721,299.886,55.505,299.382,59.652z"
		/>
	<path fill="#D88257" d="M323.653,59.652l12.316,0.149c0,0,0.111-3.808-5.959-4.081C330.01,55.721,324.157,55.505,323.653,59.652z"
		/>
	<path fill="#D88257" d="M321.127,82.06l5.049,0.063c0,0,0.045-1.563-2.443-1.674C323.733,80.449,321.334,80.361,321.127,82.06z"/>
	<path fill="#D88257" d="M310.637,82.06l5.05,0.063c0,0,0.045-1.563-2.443-1.674C313.243,80.449,310.844,80.361,310.637,82.06z"/>
	<path fill="#F2AA79" d="M324.827,109.836c-5.879,0.651-12.274-0.54-12.274-0.54c0.229-3.701,6.903-3.796,6.903-3.796
		c2.875-2.229,2.219-5.065,2.219-5.065c-0.982-3.242-2.691-3.85-2.691-3.85c-5.297-0.405-8.409-4.256-8.409-4.256
		c17.756,0.006,20.667-3.039,20.667-3.039s-2.938-7.224,3.951-15.645s12.506-8.785,12.506-8.785s0.004,17.541,0.004,23.054
		s-3.111,9.515-3.111,9.515c-3.879,6.051-11.797,9.831-15.783,11.325C328.807,108.755,326.84,109.613,324.827,109.836z"/>
	<path fill="#BD7151" d="M306.119,89.099c0,0,2.229,3.044,5.065,3.044c2.837,0,15.603,0,15.603,0s3.039-1.624,3.848-3.044H306.119z"
		/>
	<path fill="#A76929" d="M287.325,74.706h4.245c0,0-9.87-48,25.121-45.757c0,0,34.918-7.611,27.836,45.593
		c0,0.002-0.002,0.005-0.002,0.007c-0.008,0.052-0.014,0.104-0.021,0.156h3.59V63.042c0,0,4.484-16.598,4.035-22.429
		c-0.447-5.832-0.447-21.757-21.531-26.019h-26.916c0,0-18.393,5.384-19.738,17.944c-1.346,12.561,2.276,17.943,3.381,23.327
		S287.325,74.706,287.325,74.706z"/>
	<path fill="#CC8F51" d="M291.135,50.252c0,0-9.677-10.903,0-22.767s17.727-6.879,24.552-5.458c6.824,1.421,13.332,4.3,14.125,6.355
		c0.791,2.055,0.791,2.055,0.791,2.055s-20.068-1.594-22.379-0.927C305.912,30.177,292.606,35.836,291.135,50.252z"/>
	<polygon fill="#F2AA79" points="318.377,60.888 321.719,60.888 323.653,80.449 318.377,80.449 	"/>
	<rect x="316.99" y="60.888" fill="#FCE2D4" width="1.387" height="19.561"/>
	<rect x="313.913" y="58.917" fill="#5F4118" width="9.74" height="4.542"/>
	<path fill="none" stroke="#5F4118" stroke-width="4" stroke-miterlimit="10" d="M288.924,56.033v5.075h2.597
		c0,0,0.591,9.031,5.253,10.212h13.576c0,0,4.486-4.131,5.018-7.319h6.551c0,0,0.117,6.315,4.25,7.319h14.461
		c0,0,4.428-2.539,4.898-10.152h2.303v-5.489c0,0-22.488-0.177-22.488,0c0,0.177-2.539,3.01-2.539,3.01h-7.318l-3.424-2.774
		L288.924,56.033z"/>
</g>
<g>
	<path d="M487.824,503.378l-21.135,16.666c-0.426,8.666,4.475,8.148,7.617,9.332c4.967,1.873,16.674-1.797,16.674-1.797l8.396-7.078
		l18.834-12.457v-7.334l-25.773-5.334L487.824,503.378z"/>
	<path fill="#010101" stroke="#010101" stroke-miterlimit="10" d="M480.686,282.351l94.209,7.129l9.689-32.918l-0.109-109.624
		c0,0,0.77-3.348-1.777-9.794c-2.906-7.354-18.199-11.004-18.199-11.004l-15.281-4.462l-12.623,3.795l-11.768,14.155l-2.455,4.017
		l-11.01-18.013l-11.934-3.954c0,0-28.219,8.157-31.793,12.689c-4.457,5.657-4.457,12.69-4.457,12.69l-6.725,103.66l9.129,19.382
		l4.588,14.541L480.686,282.351"/>
	<path fill="#FFFFFF" d="M512.184,123.396c0,0,12.543,5.722,25.76,0l-9.945,16.006l-5.52,0.423l-10.295-15.841"/>
	<path fill="#11572D" d="M525.795,493.041c0,6.629-5.373,12-12,12h-19.873c-6.627,0-12-5.371-12-12V282.351c0-6.629,5.373-12,12-12
		h19.873c6.627,0,12,5.371,12,12V493.041z"/>
	<path fill="#D88257" d="M466.689,304.273l4.717-20.068l10.516-2.289v33.023C481.922,314.939,471.449,312.939,466.689,304.273z"/>
	<path fill="#F2AA79" d="M581.662,303.708l-4.717-20.068l-10.516-2.289v33.023C566.43,314.375,576.902,312.375,581.662,303.708z"/>
	<path d="M562.092,503.378l21.137,16.666c0.426,8.666-4.326,8.666-7.617,9.332c-3.291,0.668-16.139-1.621-16.139-1.621l-8.932-7.254
		l-18.834-12.457v-7.334l25.773-5.334L562.092,503.378z"/>
	<path fill="#114927" d="M569.268,493.041c0,6.629-5.373,12-12,12h-19.873c-6.627,0-12-5.371-12-12V282.351c0-6.629,5.373-12,12-12
		h19.873c6.627,0,12,5.371,12,12V493.041z"/>
	<path fill="#114927" d="M486.262,378.71c0,0,3.191,14.971,17.598,8.984v109.713c0,0-14.988,3.697-15.793,0
		C487.264,493.71,486.262,378.71,486.262,378.71z"/>
	<rect x="483.793" y="279.234" fill="#11572D" width="51.27" height="13.814"/>
	<path fill="#252526" d="M477.387,257.958c0,0-2.822,20.971,10.055,20.971s75.168,0,75.168,0s7.658,0.664,7.658-15.972
		c0-16.636,0-124.522,0-124.522s-19.447,96.45-46.248,96.45s-46.895-67.15-46.895-67.15L477.387,257.958z"/>
	<path fill="#F3BE9A" d="M532.16,109.928c21.406-3.712,21.404-20.51,21.404-20.51V69.807l0.002-3.977v-2.336c0,0,0,2.336,0-18.911
		c0-21.245-27.855-20.778-27.855-20.778c-29.744,0-28.799,21.945-28.799,21.945V65.36l-0.004,3.98v2.334c0,0,0-4.437,0,16.809
		c0,11.96,13.326,19.415,21.543,21.582C518.451,110.066,526.598,110.894,532.16,109.928z"/>
	<path fill="#BD7151" d="M509.047,104.521v26.127c0,0,19.188,14.192,36.697,0v-26.127H509.047z"/>
	<path fill="#FCC9A8" d="M504.982,102.168v30.851c0,0,12.971,6.528,19.225,6.283l1.107-1.423l0.033-27.947L504.982,102.168z"/>
	<path fill="#F1668B" d="M543.355,105.69"/>
	<path fill="#010101" stroke="#010101" stroke-miterlimit="10" d="M463.283,142.783c0,0,0-5.784,4.436-10.434
		c3.557-3.727,37.264-11.645,37.264-11.645l4.498,2.622l13.531,19.457h2.699l17.084-19.457l2.949-2.622l18.375,4.879
		c0,0,15.221,3.001,18.113,9.049c2.533,5.3,1.768,8.054,1.768,8.054"/>
	<path fill="#BD7151" d="M555.191,59.592V80.74C555.191,80.74,565.541,62.741,555.191,59.592z"/>
	<path fill="#BD7151" d="M497.102,59.592V80.74C497.102,80.74,486.756,62.741,497.102,59.592z"/>
	<path fill="#FCC9A8" d="M526.125,41.292l-11.91,3.99l-0.797,29.884c0,0-1.084,12.604-0.582,19.426s-12.934,3.26-12.934,3.26
		s2.51,3.567,4.838,5.684s11.814,6.637,15.129,7.06c3.316,0.422,11.133-2.326,11.133-2.326l4.094-7.181l-4.094-4.409l-5.813-3.261
		l-0.174-9.396l0.695-25.7L526.125,41.292z"/>
	<path fill="#F2AA79" d="M525.711,23.805v32.919c0,0,8.883-9.104,18.371,0c0,0,0.725,6.946,1.693,10.376
		c0.971,3.431,7.789,2.707,7.789,2.707V42.676C553.564,42.676,553.604,26.006,525.711,23.805z"/>
	<ellipse fill="#F2AA79" cx="512.836" cy="60.478" rx="6.176" ry="3.997"/>
	<path fill="#F2AA79" d="M543.355,60.478c0,2.208-2.768,3.997-6.176,3.997c-3.412,0-6.178-1.789-6.178-3.997
		c0-2.206,2.766-3.997,6.178-3.997C540.588,56.481,543.355,58.272,543.355,60.478z"/>
	<path fill="#BD7151" d="M506.66,60.329l12.352,0.149c0,0,0.113-3.819-5.975-4.092C513.037,56.386,507.166,56.17,506.66,60.329z"/>
	<path fill="#BD7151" d="M531.002,60.329l12.354,0.149c0,0,0.111-3.819-5.977-4.092C537.379,56.386,531.508,56.17,531.002,60.329z"
		/>
	<path fill="#814B1F" d="M528.471,82.804l5.063,0.062c0,0,0.047-1.565-2.449-1.678C531.084,81.188,528.676,81.1,528.471,82.804z"/>
	<path fill="#814B1F" d="M517.947,82.804l5.064,0.062c0,0,0.045-1.565-2.449-1.678C520.563,81.188,518.154,81.1,517.947,82.804z"/>
	<path fill="#F2AA79" d="M532.182,110.663c-5.896,0.654-12.313-0.542-12.313-0.542c0.23-3.712,6.924-3.807,6.924-3.807
		c2.885-2.235,2.225-5.081,2.225-5.081c-0.984-3.251-2.699-3.861-2.699-3.861c-5.313-0.406-8.434-4.269-8.434-4.269
		c17.811,0.006,20.729-3.047,20.729-3.047s-2.947-7.246,3.963-15.691c6.908-8.448,12.543-8.813,12.543-8.813
		s0.004,17.593,0.004,23.124s-3.119,9.542-3.119,9.542c-3.891,6.069-11.834,9.861-15.832,11.359
		C536.172,109.579,534.199,110.438,532.182,110.663z"/>
	<path fill="#010101" d="M494.566,75.427h4.258c0,0-9.898-48.143,25.195-45.894c0,0,35.023-7.634,27.92,45.73
		c0,0.002,0,0.005-0.002,0.007c-0.006,0.053-0.014,0.105-0.021,0.157h3.6V63.729c0,0,4.5-16.646,4.051-22.497
		c-0.451-5.849,0.225-29.365-39.088-26.096l-17.582,5.194c0,0-10.371,0.206-11.723,12.804c-1.348,12.597,2.285,17.996,3.393,23.396
		C495.674,61.929,494.566,75.427,494.566,75.427z"/>
	<polygon fill="#D88257" points="525.711,61.568 529.064,61.568 531.002,81.188 525.711,81.188 	"/>
	<rect x="524.32" y="61.568" fill="#FCE2D4" width="1.391" height="19.62"/>
	<path fill="#010101" d="M520.479,25.815c0,0,1.168,11.698,7.992,12.599c0,0,4.205-0.542,5.063,2.878
		c0.859,3.42,0.893,9.43,2.969,8.244c6.854-3.911,17.064,3.909,17.064,3.909l-4.385-21.108L520.479,25.815z"/>
	<path fill="#4A4A4A" d="M526.285,24.975c0,0,3.947,8.715,10.471,8.492c0,0,0.254,7.785,3.838,8.957
		c3.586,1.17,12.396,3.833,12.396,3.833l-4.658-19.311L526.285,24.975z"/>
	<path fill="#010101" d="M495.635,62.41l0.932,22.497c0,0-1.094,17.945,16.891,22.946c0,0,13.02,10.958,25.723,0.849
		c0,0,19.172-6.938,16.012-26.676l0.199-14.926h-1.824l-1.555,12.856l-0.408,7.575l-11.375,8.624c0,0-1.242-4.95-1.217-6.299h2.754
		c0,0-0.613-5.174-3.258-4.725c-2.646,0.45-24.725-0.225-24.725-0.225s-4.953,2.7-3.137,5.849l2.049-0.415l-1.949,6.337
		l-10.857-12.221l-2.344-22.046H495.635z"/>
	<path fill="#FCC9A8" d="M513.617,91.39c0,0,2.236,3.053,5.082,3.053c2.844,0,15.646,0,15.646,0s3.049-1.628,3.861-3.053H513.617z"
		/>
	<path fill="#4A4A4A" d="M504.396,55.35c0.074-0.225,1.199-4.199,3.6-4.649c2.4-0.45,12.521,0,12.521,0v4.425L504.396,55.35z"/>
	<path fill="#4A4A4A" d="M546.496,55.35c-0.076-0.225-1.201-4.199-3.6-4.649c-2.4-0.45-12.523,0-12.523,0v4.425L546.496,55.35z"/>
	<polygon fill="#555455" points="545.744,113.417 554.404,113.417 545.744,118.742 	"/>
	<path fill="#555455" d="M504.982,113.417c-2.91,0.248-9.313,0-9.313,0l9.313,5.681V113.417z"/>
	<polygon fill="#FBF9FB" points="554.404,113.417 554.031,113.661 537.98,124.137 525.912,134.624 529.918,143.254 540.291,126.553 
		556.713,137.163 554.404,114.678 	"/>
	<polygon fill="#FBF9FB" points="495.67,113.417 496.043,113.661 512.092,124.137 523.697,134.061 519.012,143.834 509.783,126.553 
		493.359,137.163 495.67,114.678 	"/>
	<polygon fill="#4D56A5" points="519.012,143.254 524.32,154.956 529.918,143.254 527.396,136.939 522.1,136.939 	"/>
	<path fill="#2D3975" d="M529.709,138.235c0,2.402-2.102,4.348-4.691,4.348l0,0c-1.117,0-2.143-0.361-2.949-0.964
		c-1.064-0.797-1.746-2.016-1.746-3.383v-2.559c0-2.402,2.102-4.347,4.695-4.347l0,0c2.59,0,4.691,1.945,4.691,4.347V138.235z"/>
</g>
<g>
	<path fill="#D88257" d="M83.396,633.199"/>
	<path fill="#814B1F" d="M90.241,653.013v9.908h-7.335v-9.908v-7.557C82.906,645.457,86.455,650.585,90.241,653.013z"/>
	<path fill="#814B1F" d="M137.372,637.837l0.905,8.867l-4.893,16.217h-6.271v-8.494c0,0,3.063-1.414,6.118-6.355
		C133.23,648.072,136.889,642.132,137.372,637.837z"/>
	<path fill="#FCC9A8" d="M90.241,653.013v17.477c0,0,19.278,9.494,36.872,0v-17.477H90.241z"/>
	<path fill="#F2AA79" d="M90.241,649.769v20.721c0,0,11.761,4.387,17.432,4.221l1.003-0.955l0.03-18.771L90.241,649.769z"/>
	<path fill="#F2AA79" d="M115.864,658.447c21.51-3.732,21.507-20.609,21.507-20.609v-19.705l0.003-3.998v-2.346
		c0,0,0,2.346,0-19.002c0-21.346-27.991-20.877-27.991-20.877c-29.887,0-28.938,22.051-28.938,22.051v19.705l-0.003,3.998v2.346
		c0,0,0-4.457,0,16.891c0,12.02,13.39,19.51,21.647,21.686C102.09,658.585,110.274,659.416,115.864,658.447z"/>
	<path fill="#FCC9A8" d="M109.384,571.91v33.078c0,0,8.927-9.148,18.459,0c0,0,0.73,6.979,1.703,10.426
		c0.974,3.445,7.826,2.719,7.826,2.719v-27.262C137.372,590.871,137.411,574.123,109.384,571.91z"/>
	<polygon fill="#FCE2D4" points="109.384,609.855 112.753,609.855 114.7,629.568 109.384,629.568 	"/>
	<ellipse fill="#FCE2D4" cx="96.447" cy="608.759" rx="6.206" ry="4.016"/>
	<ellipse fill="#FCE2D4" cx="120.906" cy="608.759" rx="6.206" ry="4.016"/>
	<path fill="#D88257" d="M90.241,608.609l12.413,0.15c0,0,0.113-3.838-6.004-4.111C96.649,604.648,90.75,604.429,90.241,608.609z"/>
	<path fill="#D88257" d="M114.7,608.609l12.412,0.15c0,0,0.114-3.838-6.004-4.111C121.108,604.648,115.209,604.429,114.7,608.609z"
		/>
	<path fill="#D88257" d="M112.156,631.193l5.088,0.063c0,0,0.047-1.574-2.462-1.688C114.782,629.568,112.364,629.48,112.156,631.193
		z"/>
	<path fill="#D88257" d="M101.583,631.193l5.089,0.063c0,0,0.046-1.574-2.462-1.688C104.21,629.568,101.792,629.48,101.583,631.193z
		"/>
	<path fill="#D88257" d="M103.494,658.99c5.925,0.656,12.37-0.543,12.37-0.543c-0.23-3.73-6.956-3.826-6.956-3.826
		c-3.059-0.432-2.237-5.104-2.237-5.104c0.173-3.35,2.405-3.719,2.405-3.719c5.338-0.41,8.782-4.449,8.782-4.449
		c-17.896,0.004-20.829-3.064-20.829-3.064s2.961-7.279-3.981-15.766c-6.943-8.488-12.604-8.854-12.604-8.854
		s-0.003,17.678-0.003,23.234s3.134,9.588,3.134,9.588c3.909,6.098,11.891,9.906,15.907,11.414
		C99.484,657.902,101.466,658.767,103.494,658.99z"/>
	<path fill="#BD7151" d="M97.031,638.285c0,0,2.247,3.068,5.105,3.068c2.858,0,15.723,0,15.723,0s3.063-1.637,3.879-3.068H97.031z"
		/>
	<path fill="#D88257" d="M137.372,631.476c0,0,18.372-23.578,0-28.566V631.476z"/>
	<path fill="#F2AA79" d="M80.443,634.615c0,0-18.371-28.279,0-34.262V634.615z"/>
	<path fill="#814B1F" d="M97.687,580.474h23.396c0,0,8.151,22.17,16.289,24.883c0,0,13.209-1.826,1.681,22.246l-1.678,1.965
		l-0.003,17.297l-6.668,25.043l27.669,11.713c0,0-10.504-34.994-11.521-46.523c-1.018-11.527-0.338-39.332-0.338-39.332
		s-8.839-33.088-24.775-38.514c0,0-8.319-2.92-15.575,0.877c0,0-12.545-8.137-23.396,6.443c0,0-11.528,17.971-11.189,34.586
		c0.339,16.613-0.007,30.855-0.007,30.855s-4.676,15.113-9.182,23.736l-2.129,7.172c0,0-3.261,27.75,7.25,28.428
		c10.511,0.678,17.477-29.961,17.477-34.369c0-2.105,0.006-7.729-2.41-12.076c-2.324-4.184-2.034-15.336-2.034-15.336
		s-2.068,1.688-2.861-1.965c-3.265-15.014-2.662-17.838-2.662-17.838s-0.496-4.408,2.193-6.016c0,0,3.082-1.424,4.413,0.895
		C83.228,607.435,94.974,590.646,97.687,580.474z"/>
	<path fill="#F1668B" d="M127.112,654.189"/>
	<path fill="#DEDBDC" d="M148.166,601.169"/>
	<path fill="#DEDBDC" d="M69.873,601.169"/>
	<path fill="#DEDBDC" d="M69.873,598.841"/>
	<path fill="#A76929" d="M107.128,568.343c0,0,12.854-4.854,22.956,0c10.103,4.854,8.687,30.371,10.751,31.854
		s-15.427-7.605-16.854-24.363C122.555,559.078,107.128,568.343,107.128,568.343z"/>
	<path fill="#C0DEF4" d="M71.454,596.429c0,0-1.492-30.195,24.96-39.631c0,0,15.787-5.426,29.013,2.359
		c0,0,19.626,8.686,23.467,31.354l-4.48,1.436l-12.586-4.953l-25.599-3.539l-20.408,3.066L71.454,596.429z"/>
	<path fill="#AACDE1" d="M69.818,590.324l-0.093,7.557c0,0,3.932-2.412,8.412-4.254c3.869-1.59,13.227-5.633,27.733-5.826
		c14.507-0.195,4.694,0,4.694,0s19.551,1.939,25.6,4.467c6.746,2.818,11.837,4.102,11.837,4.102l0.109-6.432
		c0,0-7.869-10.842-29.887-13.402c-0.622-0.072-1.252-0.166-1.899-0.195c-21.119-0.949-18.346,0-18.346,0
		S75.791,579.642,69.818,590.324z"/>
	<path fill="#010101" d="M54.975,576.4c0,0-2.987,4.248,0,8.258c2.986,4.01,5.333,5.898,5.333,5.898s6.507,3.184,9.387,0
		l17.493-19.346c0,0,2.773-7.076-1.28-11.559l-3.627-4.01c0,0-5.653-3.893-10.453,1.414C67.029,562.365,54.975,576.4,54.975,576.4z"
		/>
	<path fill="#E51C3C" d="M50.388,571.328c0,0-2.986,4.248,0,8.258c2.987,4.012,5.334,5.898,5.334,5.898s6.506,3.184,9.386,0
		l17.493-19.346c0,0,2.774-7.076-1.279-11.559l-3.627-4.01c0,0-5.653-3.893-10.453,1.416
		C62.442,557.292,50.388,571.328,50.388,571.328z"/>
	<path fill="#DEF1FC" d="M97.162,587.283h23.472c0,0,3.084-24.834-10.467-26.576C110.167,560.707,96.068,558.136,97.162,587.283z"/>
	<path fill="#AB1D36" d="M53.647,583.49L80.6,553.783c0,0,7.514,7.436,4.156,11.371c-1.6,1.877-19.648,20.33-19.648,20.33
		S60.115,590.642,53.647,583.49z"/>
	<path fill="#010101" d="M161.128,578.205c0,0,2.524,4.598-0.857,8.201c-3.384,3.605-5.911,5.182-5.911,5.182
		s-6.793,2.338-9.324-1.191l-15.369-21.438c0,0-2.02-7.383,2.472-11.32l4.02-3.523c0,0,6.02-3.148,10.236,2.732
		C150.612,562.73,161.128,578.205,161.128,578.205z"/>
	<path fill="#E51C3C" d="M166.21,573.748c0,0,2.525,4.6-0.857,8.203s-5.91,5.182-5.91,5.182s-6.794,2.338-9.324-1.191
		l-15.369-21.438c0,0-2.02-7.383,2.472-11.32l4.021-3.523c0,0,6.019-3.15,10.236,2.732
		C155.695,558.275,166.21,573.748,166.21,573.748z"/>
	<path fill="#AB1D36" d="M161.71,585.416l-23.689-32.934c0,0-8.236,6.432-5.309,10.77c1.394,2.064,17.406,22.689,17.406,22.689
		S154.543,591.699,161.71,585.416z"/>
	<path fill="#DEF1FC" d="M69.78,597.847c0,0,31.401-25.406,78.275-1.512C148.055,596.335,102.352,583.037,69.78,597.847z"/>
	<path fill="#A7DEEC" d="M71.197,1052.193l-21.136,16.666c-0.425,8.666,4.474,8.148,7.617,9.332
		c4.967,1.873,16.674-1.797,16.674-1.797l8.397-7.078l18.834-12.457v-7.334l-25.774-5.334L71.197,1052.193z"/>
	<path fill="#FFFFFF" d="M64.294,831.166l94.209,7.129l9.689-32.92l-0.107-109.623c0,0,0.768-3.348-1.778-9.795
		c-2.907-7.354-18.199-11.004-18.199-11.004l-15.282-4.463l-12.623,3.797l-11.767,14.154l-2.456,4.018l-11.01-18.014l-11.934-3.955
		c0,0-28.219,8.158-31.792,12.689c-4.457,5.658-4.457,12.691-4.457,12.691l-6.726,103.66l9.13,19.383l4.587,14.541L64.294,831.166"
		/>
	<path fill="#EDEBEB" d="M108.706,680.894l-0.271,135.631c0,0,0.961,9.168-6.853,9.516c-7.813,0.346-35.289,0-35.289,0
		s-6.216,1.203-6.513-10.801s0-136.941,0-136.941l23.255-7.809L108.706,680.894z"/>
	<path fill="#FFFFFF" d="M95.555,672.21c0,0,12.543,5.721,25.761,0l-9.946,16.006l-5.52,0.424l-10.295-15.842"/>
	<polygon fill="#DEDBDC" points="134.294,662.242 133.966,662.488 119.834,673.013 111.022,686.951 111.022,688.64 121.868,675.441 
		136.328,686.103 134.294,663.509 	"/>
	<polygon fill="#DEDBDC" points="82.577,662.242 82.906,662.488 97.037,673.013 105.85,686.951 105.85,688.64 95.003,675.441 
		80.543,686.103 82.577,663.509 	"/>
	<path fill="#EDEBEB" d="M109.167,1041.855c0,6.629-5.373,12-12,12H77.294c-6.627,0-12-5.371-12-12V831.166c0-6.629,5.373-12,12-12
		h19.873c6.627,0,12,5.371,12,12V1041.855z"/>
	<path fill="#D88257" d="M50.061,853.087l4.717-20.068l10.516-2.289v33.023C65.294,863.753,54.821,861.753,50.061,853.087z"/>
	<path fill="#F2AA79" d="M165.034,852.523l-4.717-20.068l-10.516-2.289v33.023C149.801,863.189,160.274,861.189,165.034,852.523z"/>
	<rect x="128.634" y="713.835" fill="#666666" width="17.388" height="22.967"/>
	<rect x="110.006" y="713.835" fill="#666666" width="17.388" height="22.967"/>
	<path fill="#4A484A" d="M125.887,716.548c0,0.928-0.752,1.682-1.68,1.682h-11.504c-0.928,0-1.68-0.754-1.68-1.682l0,0
		c0-0.928,0.752-1.68,1.68-1.68h11.504C125.135,714.869,125.887,715.621,125.887,716.548L125.887,716.548z"/>
	<path fill="#4A484A" d="M144.761,716.548c0,0.928-0.752,1.682-1.68,1.682h-11.504c-0.928,0-1.68-0.754-1.68-1.682l0,0
		c0-0.928,0.752-1.68,1.68-1.68h11.504C144.008,714.869,144.761,715.621,144.761,716.548L144.761,716.548z"/>
	<path fill="#45A0BC" d="M63.519,1060.144l-11.167,9.777c0,0-1.011,6.813,19.366,0l15.513-13.941
		C87.23,1055.98,61.574,1077.169,63.519,1060.144z"/>
	<path fill="#A7DEEC" d="M145.464,1052.193l21.135,16.666c0.426,8.666-4.325,8.666-7.616,9.332
		c-3.292,0.668-16.139-1.621-16.139-1.621l-8.933-7.254l-18.834-12.457v-7.334l25.774-5.334L145.464,1052.193z"/>
	<path fill="#45A0BC" d="M153.962,1061.457l10.346,8.465c0,0,1.012,6.813-19.365,0l-15.513-13.941
		C129.431,1055.98,155.907,1078.482,153.962,1061.457z"/>
	<path fill="#FFFFFF" d="M152.64,1041.855c0,6.629-5.373,12-12,12h-19.873c-6.627,0-12-5.371-12-12V831.166c0-6.629,5.373-12,12-12
		h19.873c6.627,0,12,5.371,12,12V1041.855z"/>
	<path fill="#EDEBEB" d="M150.617,801.451v-47.059c0,0-21.601,54.574-29.981,62.926c0,0-6.262,0.514-9.369,1.316
		c-3.104,0.803-9.684,7.406-9.684,7.406l31.5,0.09C133.083,826.13,148.077,826.5,150.617,801.451z"/>
	<path fill="#FFFFFF" d="M69.634,927.525c0,0,3.191,14.971,17.597,8.984v109.713c0,0-14.988,3.697-15.792,0
		S69.634,927.525,69.634,927.525z"/>
	<polygon fill="#A5A4A4" points="127.112,662.242 134.294,662.242 127.112,667.591 	"/>
	<path fill="#A5A4A4" d="M90.241,662.242c-2.395,0.248-7.664,0-7.664,0l7.664,5.709V662.242z"/>
</g>
<g>
	<path fill="#FCC9A8" d="M269.645,754.391l4.245,62.066c0,0,33.901,12.504,80.262,2.707l7.617-70.174L269.645,754.391z"/>
	<path fill="#FCC9A8" d="M350.257,901.325l-1.206,22.41c0,0,2.713,1.201,0,11.149s-8.329,111.24-8.329,111.24
		s-9.841,8.666-16.584,3.432l-4.41-58.597c0,0-3.843-16.012-2.939-22.795s4.235-16.798,4.235-16.798l2.702-13.066l-7.874-39.142"/>
	<path fill="#FFFFFF" d="M299.906,672.209c0,0,12.543,5.721,25.761,0l-9.946,16.006l-5.52,0.423l-10.295-15.841"/>
	<path fill="#F2AA79" d="M275.351,900.369l1.206,22.41c0,0-2.713,1.201,0,11.149s8.329,111.24,8.329,111.24
		s9.841,8.666,16.584,3.432l4.41-58.597c0,0,3.843-16.012,2.939-22.795s-4.235-16.798-4.235-16.798l-2.702-13.066l7.874-39.142"/>
	<path fill="#B14A9C" d="M313.518,899.703c0,2.397-5.373,4.34-12,4.34h-19.873c-6.627,0-12-1.942-12-4.34v-76.198
		c0-2.397,5.373-4.34,12-4.34h19.873c6.627,0,12,1.942,12,4.34V899.703z"/>
	<path fill="#9C4299" d="M356.991,898.92c0,2.374-5.373,4.298-12,4.298h-19.873c-6.627,0-12-1.924-12-4.298v-75.458
		c0-2.374,5.373-4.298,12-4.298h19.873c6.627,0,12,1.924,12,4.298V898.92z"/>
	<rect x="271.515" y="814.624" fill="#B14A9C" width="83.277" height="8.881"/>
	<rect x="299.621" y="823.018" fill="#B14A9C" width="24.42" height="21.459"/>
	<path d="M281.104,1045.168l-2.563,6.068l-38.614,13.836l-31.672,10.526c0,0,12.227,17.059,44.334,22.033
		c0,0,20.237-16.157,26.229-19.32s17.02-15.049,17.02-15.049s11.592-2.347,9.866-12.026s-3.607-7.047-3.607-7.047"/>
	<path d="M343.663,1045.168l2.563,6.068l38.613,13.836l31.672,10.526c0,0-12.227,17.059-44.334,22.033
		c0,0-20.237-16.157-26.229-19.32s-17.02-15.049-17.02-15.049s-11.592-2.347-9.866-12.026s3.607-7.047,3.607-7.047"/>
	<path fill="#353535" d="M217.874,1077.307c0,0,18,12.332,30.325,13.219s32.139-24.623,35.25-25.919s-27.732,24.363-65.574,11.663"
		/>
	<path fill="#353535" d="M407.636,1077.307c0,0-18,12.332-30.324,13.219c-12.326,0.887-32.14-24.623-35.25-25.919
		s27.732,24.363,65.574,11.663"/>
	<path fill="#FCC9A8" d="M319.858,657.917c21.344-3.701,21.34-20.449,21.34-20.449v-19.551l0.004-3.967v-2.328c0,0,0,2.328,0-18.855
		c0-21.182-27.773-20.715-27.773-20.715c-29.656,0-28.714,21.879-28.714,21.879v19.553l-0.004,3.967v2.328c0,0,0-4.422,0,16.758
		c0,11.926,13.287,19.361,21.48,21.52C306.19,658.055,314.311,658.879,319.858,657.917z"/>
	<path fill="#BD7151" d="M296.813,652.526v17.342c0,0,19.128,9.422,36.587,0v-17.342H296.813z"/>
	<path fill="#FCC9A8" d="M292.761,649.778v20.561c0,0,12.734,4.352,18.875,4.188l1.087-0.949l0.031-18.625L292.761,649.778z"/>
	<path fill="#F1668B" d="M331.02,653.692"/>
	<path fill="#FCC9A8" d="M297.246,671.276c0,0,20.098,5.678,33.213,0l-16.238,19.348l-4.939,0.004L297.246,671.276"/>
	<path fill="#FCC9A8" d="M371.543,690.577c0,0,0.764-2.744-1.764-8.029c-2.883-6.029-18.059-9.021-18.059-9.021l-18.32-4.865
		l-2.941,2.615l-17.031,19.398h-2.691l-13.491-19.398l-4.485-2.615c0,0-33.607,7.895-37.152,11.611
		c-4.423,4.635-4.423,10.402-4.423,10.402l-29.118,53.428c0,0-1.955,8.846,2.934,10.289s33.976,16.395,33.976,16.395l83.775,1.811
		l48.472-18.205c0,0,6.844-3.689,6.6-7.601S371.543,690.577,371.543,690.577z"/>
	<path fill="#F2AA79" d="M342.821,607.731v21.084C342.821,628.815,353.139,610.872,342.821,607.731z"/>
	<path fill="#F2AA79" d="M284.904,607.731v21.084C284.904,628.815,274.587,610.872,284.904,607.731z"/>
	<path fill="#F3BE9A" d="M313.84,589.487l-11.875,3.977l-0.796,29.796c0,0-1.079,12.567-0.579,19.368
		c0.5,6.803-12.895,3.25-12.895,3.25s2.501,3.559,4.822,5.668c2.321,2.111,11.779,6.617,15.085,7.039
		c3.306,0.42,11.1-2.32,11.1-2.32l4.082-7.16l-4.082-4.393l-5.797-3.254l-0.172-9.367l0.693-25.623L313.84,589.487z"/>
	<path fill="#F2AA79" d="M313.428,572.051v32.82c0,0,8.857-9.077,18.314,0c0,0,0.725,6.926,1.691,10.346
		c0.965,3.42,7.764,2.699,7.764,2.699v-27.051C341.198,590.866,341.237,574.247,313.428,572.051z"/>
	<ellipse fill="#F2AA79" cx="300.591" cy="608.616" rx="6.158" ry="3.984"/>
	<ellipse fill="#F2AA79" cx="324.862" cy="608.616" rx="6.158" ry="3.984"/>
	<path fill="#D88257" d="M294.433,608.465l12.316,0.15c0,0,0.112-3.809-5.958-4.081
		C300.791,604.535,294.937,604.319,294.433,608.465z"/>
	<path fill="#D88257" d="M318.704,608.465l12.316,0.15c0,0,0.111-3.809-5.959-4.081
		C325.061,604.535,319.208,604.319,318.704,608.465z"/>
	<path fill="#D88257" d="M316.178,630.874l5.049,0.063c0,0,0.045-1.563-2.443-1.674
		C318.784,629.262,316.385,629.174,316.178,630.874z"/>
	<path fill="#D88257" d="M305.688,630.874l5.05,0.063c0,0,0.045-1.563-2.443-1.674C308.294,629.262,305.895,629.174,305.688,630.874
		z"/>
	<path fill="#F2AA79" d="M319.877,658.651c-5.879,0.65-12.274-0.541-12.274-0.541c0.229-3.701,6.903-3.795,6.903-3.795
		c2.875-2.229,2.219-5.066,2.219-5.066c-0.982-3.242-2.691-3.85-2.691-3.85c-5.297-0.404-8.409-4.256-8.409-4.256
		c17.756,0.006,20.667-3.039,20.667-3.039s-2.938-7.223,3.951-15.645c6.889-8.42,12.506-8.784,12.506-8.784
		s0.004,17.54,0.004,23.054s-3.111,9.516-3.111,9.516c-3.879,6.051-11.797,9.83-15.783,11.324
		C323.858,657.569,321.891,658.426,319.877,658.651z"/>
	<path fill="#BD7151" d="M301.17,637.913c0,0,2.229,3.045,5.065,3.045c2.837,0,15.603,0,15.603,0s3.039-1.625,3.848-3.045H301.17z"
		/>
	<path fill="#A76929" d="M282.376,623.52h4.245c0,0-9.87-48,25.121-45.757c0,0,34.918-7.61,27.836,45.593
		c0,0.002-0.002,0.006-0.002,0.008c-0.008,0.053-0.014,0.104-0.021,0.156h3.59v-11.664c0,0,4.484-16.598,4.035-22.429
		c-0.447-5.832-0.447-21.757-21.531-26.019h-26.916c0,0-18.393,5.383-19.738,17.943s2.276,17.943,3.381,23.326
		C283.48,610.062,282.376,623.52,282.376,623.52z"/>
	<path fill="#CC8F51" d="M286.186,599.067c0,0-9.677-10.903,0-22.768c9.677-11.863,17.727-6.879,24.552-5.457
		c6.824,1.42,13.332,4.3,14.125,6.354c0.791,2.055,0.791,2.055,0.791,2.055s-20.068-1.595-22.379-0.927
		C300.963,578.991,287.657,584.65,286.186,599.067z"/>
	<polygon fill="#F2AA79" points="313.428,609.702 316.77,609.702 318.704,629.262 313.428,629.262 	"/>
	<rect x="312.041" y="609.702" fill="#FCE2D4" width="1.387" height="19.561"/>
	<rect x="308.964" y="607.731" fill="#5F4118" width="9.74" height="4.543"/>
	<path fill="none" stroke="#5F4118" stroke-width="4" stroke-miterlimit="10" d="M283.975,604.847v5.075h2.597
		c0,0,0.591,9.031,5.253,10.212H305.4c0,0,4.486-4.132,5.018-7.319h6.551c0,0,0.117,6.316,4.25,7.319h14.461
		c0,0,4.428-2.538,4.898-10.152h2.303v-5.489c0,0-22.488-0.177-22.488,0c0,0.178-2.539,3.01-2.539,3.01h-7.318l-3.424-2.773
		L283.975,604.847z"/>
	<path fill="#F2AA79" d="M291.582,670.489c0,0-30.4,4.718-30.852,11.9s10.786,86.679,10.786,86.679l3.836,45.456h37.384V678.288
		v-3.082C312.735,675.206,295.3,674.375,291.582,670.489z"/>
	<rect x="245.804" y="770.698" width="133.861" height="3.796"/>
	<path fill="#2B2C2B" stroke="#2B2C2B" stroke-miterlimit="10" d="M245.824,695.354c0,0,0.798-5.246,5.465-5.405
		c4.667-0.159,121.306,0,121.306,0s7.07-0.071,7.07,6.444v74.467H245.824V695.354"/>
	<path fill="#525252" stroke="#525252" stroke-miterlimit="10" d="M245.823,771.272v-74.811c0,0-0.626-5.559,5.324-5.4
		c5.952,0.158,31.176,0,31.176,0s-21.994,1.946-23.346,12.23c-0.121,0.925,0,67.494,0,67.494L245.823,771.272z"/>
	<circle fill="none" stroke="#F9BB16" stroke-width="0.75" stroke-miterlimit="10" cx="312.745" cy="732.852" r="5.141"/>
	<path fill="#F2AA79" d="M243.545,746.497l15.393-3.86c0,0,1.792-1.115,2.696,1.93s2.43,19.236,2.43,19.236
		s-0.169,4.069-6.952,3.706s-13.567-4.517-13.567-4.517"/>
	<path fill="#F2AA79" d="M381.025,741.69l-15.393-3.86c0,0-1.792-1.115-2.696,1.93s-2.43,19.236-2.43,19.236
		s0.169,4.069,6.952,3.706c6.783-0.363,13.567-4.517,13.567-4.517"/>
	<path fill="none" stroke="#F9BB16" stroke-miterlimit="10" d="M319.61,732.852c0,3.791-3.073,6.866-6.864,6.866
		s-6.866-3.075-6.866-6.866c0-3.789,3.075-6.863,6.866-6.863S319.61,729.063,319.61,732.852z"/>
</g>
<g>
	<path fill="#F3BE9A" d="M532.552,658.741c21.406-3.713,21.404-20.51,21.404-20.51V618.62l0.002-3.977v-2.337c0,0,0,2.337,0-18.911
		c0-21.244-27.855-20.777-27.855-20.777c-29.744,0-28.799,21.945-28.799,21.945v19.61l-0.004,3.98v2.335c0,0,0-4.438,0,16.809
		c0,11.961,13.326,19.415,21.543,21.582C518.843,658.879,526.989,659.708,532.552,658.741z"/>
	<path fill="#BD7151" d="M509.438,653.334v26.127c0,0,19.188,14.191,36.697,0v-26.127H509.438z"/>
	<path fill="#FCC9A8" d="M505.374,650.981v30.852c0,0,12.971,6.527,19.225,6.282l1.107-1.423l0.033-27.947L505.374,650.981z"/>
	<path fill="#F1668B" d="M543.747,654.502"/>
	<path fill="#BD7151" d="M555.583,608.405v21.148C555.583,629.553,565.933,611.554,555.583,608.405z"/>
	<path fill="#BD7151" d="M497.493,608.405v21.148C497.493,629.553,487.147,611.554,497.493,608.405z"/>
	<path fill="#FCC9A8" d="M526.517,590.106l-11.91,3.99l-0.797,29.884c0,0-1.084,12.604-0.582,19.427
		c0.502,6.821-12.934,3.26-12.934,3.26s2.51,3.566,4.838,5.684s11.814,6.637,15.129,7.061c3.316,0.422,11.133-2.326,11.133-2.326
		l4.094-7.182l-4.094-4.408l-5.813-3.262l-0.174-9.396l0.695-25.699L526.517,590.106z"/>
	<path fill="#F2AA79" d="M526.103,572.618v32.92c0,0,8.883-9.105,18.371,0c0,0,0.725,6.945,1.693,10.375
		c0.971,3.432,7.789,2.707,7.789,2.707v-27.131C553.956,591.489,553.995,574.819,526.103,572.618z"/>
	<ellipse fill="#F2AA79" cx="513.228" cy="609.292" rx="6.176" ry="3.996"/>
	<path fill="#F2AA79" d="M543.747,609.292c0,2.207-2.768,3.996-6.176,3.996c-3.412,0-6.178-1.789-6.178-3.996
		s2.766-3.997,6.178-3.997C540.979,605.294,543.747,607.084,543.747,609.292z"/>
	<path fill="#BD7151" d="M507.052,609.141l12.352,0.15c0,0,0.113-3.82-5.975-4.092C513.429,605.2,507.558,604.983,507.052,609.141z"
		/>
	<path fill="#BD7151" d="M531.394,609.141l12.354,0.15c0,0,0.111-3.82-5.977-4.092C537.771,605.2,531.899,604.983,531.394,609.141z"
		/>
	<path fill="#814B1F" d="M528.862,631.617l5.063,0.062c0,0,0.047-1.564-2.449-1.678C531.476,630,529.067,629.913,528.862,631.617z"
		/>
	<path fill="#814B1F" d="M518.339,631.617l5.064,0.062c0,0,0.045-1.564-2.449-1.678C520.954,630,518.546,629.913,518.339,631.617z"
		/>
	<path fill="#F2AA79" d="M532.573,659.475c-5.896,0.654-12.313-0.541-12.313-0.541c0.23-3.712,6.924-3.807,6.924-3.807
		c2.885-2.234,2.225-5.081,2.225-5.081c-0.984-3.251-2.699-3.861-2.699-3.861c-5.313-0.405-8.434-4.269-8.434-4.269
		c17.811,0.006,20.729-3.047,20.729-3.047s-2.947-7.246,3.963-15.691c6.908-8.447,12.543-8.813,12.543-8.813
		s0.004,17.594,0.004,23.124s-3.119,9.542-3.119,9.542c-3.891,6.069-11.834,9.861-15.832,11.359
		C536.563,658.391,534.591,659.251,532.573,659.475z"/>
	<path fill="#010101" d="M494.958,624.241h4.258c0,0-9.898-48.144,25.195-45.895c0,0,35.023-7.633,27.92,45.73
		c0,0.002,0,0.006-0.002,0.007c-0.006,0.053-0.014,0.104-0.021,0.157h3.6v-11.698c0,0,4.5-16.646,4.051-22.497
		c-0.451-5.848,0.225-29.365-39.088-26.096l-17.582,5.194c0,0-10.371,0.206-11.723,12.804c-1.348,12.597,2.285,17.996,3.393,23.396
		C496.065,610.743,494.958,624.241,494.958,624.241z"/>
	<polygon fill="#D88257" points="526.103,610.381 529.456,610.381 531.394,630 526.103,630 	"/>
	<rect x="524.712" y="610.381" fill="#FCE2D4" width="1.391" height="19.619"/>
	<path fill="#010101" d="M520.87,574.628c0,0,1.168,11.698,7.992,12.599c0,0,4.205-0.542,5.063,2.879
		c0.859,3.42,0.893,9.43,2.969,8.244c6.854-3.911,17.064,3.908,17.064,3.908l-4.385-21.107L520.87,574.628z"/>
	<path fill="#4A4A4A" d="M526.677,573.788c0,0,3.947,8.716,10.471,8.492c0,0,0.254,7.785,3.838,8.957
		c3.586,1.17,12.396,3.834,12.396,3.834l-4.658-19.312L526.677,573.788z"/>
	<path fill="#010101" d="M496.026,611.223l0.932,22.496c0,0-1.094,17.945,16.891,22.947c0,0,13.02,10.957,25.723,0.848
		c0,0,19.172-6.938,16.012-26.676l0.199-14.926h-1.824l-1.555,12.857l-0.408,7.574l-11.375,8.624c0,0-1.242-4.95-1.217-6.3h2.754
		c0,0-0.613-5.174-3.258-4.725c-2.646,0.45-24.725-0.225-24.725-0.225s-4.953,2.701-3.137,5.85l2.049-0.415l-1.949,6.337
		L500.28,633.27l-2.344-22.047H496.026z"/>
	<path fill="#FCC9A8" d="M514.009,640.204c0,0,2.236,3.053,5.082,3.053c2.844,0,15.646,0,15.646,0s3.049-1.629,3.861-3.053H514.009z
		"/>
	<path fill="#4A4A4A" d="M504.788,604.163c0.074-0.225,1.199-4.198,3.6-4.648s12.521,0,12.521,0v4.424L504.788,604.163z"/>
	<path fill="#4A4A4A" d="M546.888,604.163c-0.076-0.225-1.201-4.198-3.6-4.648c-2.4-0.45-12.523,0-12.523,0v4.424L546.888,604.163z"
		/>
	<path fill="#A7DEEC" d="M488.487,1052.193l-21.135,16.665c-0.426,8.666,4.475,8.148,7.617,9.333
		c4.967,1.872,16.674-1.797,16.674-1.797l8.396-7.079l18.834-12.457v-7.334l-25.773-5.333L488.487,1052.193z"/>
	<path fill="#FFFFFF" d="M481.585,831.165l94.209,7.129l9.689-32.919l-0.107-109.624c0,0,0.768-3.348-1.777-9.795
		c-2.908-7.354-18.199-11.004-18.199-11.004l-15.283-4.462l-12.623,3.796l-11.496,6.607l-2.727,11.564l-11.01-18.014l-11.934-3.954
		c0,0-28.219,8.157-31.791,12.689c-4.457,5.657-4.457,12.69-4.457,12.69l-6.727,103.66l9.131,19.384l4.586,14.54L481.585,831.165"/>
	<path fill="#EDEBEB" d="M525.997,680.893l-0.27,135.632c0,0,0.961,9.168-6.854,9.515c-7.813,0.347-35.289,0-35.289,0
		s-6.215,1.203-6.512-10.801s0-136.941,0-136.941l23.254-7.808L525.997,680.893z"/>
	<path fill="#EDEBEB" d="M526.458,1041.855c0,6.628-5.373,12-12,12h-19.873c-6.627,0-12-5.372-12-12v-210.69c0-6.628,5.373-12,12-12
		h19.873c6.627,0,12,5.372,12,12V1041.855z"/>
	<path fill="#6259A6" d="M467.353,853.086l4.717-20.068l10.516-2.289v33.024C482.585,863.753,472.112,861.753,467.353,853.086z"/>
	<path fill="#6259A6" d="M582.325,852.522l-4.717-20.068l-10.516-2.289v33.024C567.093,863.189,577.565,861.189,582.325,852.522z"/>
	<rect x="545.925" y="713.835" fill="#666666" width="17.389" height="22.967"/>
	<rect x="527.298" y="713.835" fill="#666666" width="17.387" height="22.967"/>
	<path fill="#4A484A" d="M543.179,716.548c0,0.928-0.752,1.681-1.68,1.681h-11.506c-0.928,0-1.68-0.753-1.68-1.681l0,0
		c0-0.928,0.752-1.681,1.68-1.681h11.506C542.427,714.868,543.179,715.621,543.179,716.548L543.179,716.548z"/>
	<path fill="#4A484A" d="M562.052,716.548c0,0.928-0.752,1.681-1.68,1.681h-11.504c-0.928,0-1.682-0.753-1.682-1.681l0,0
		c0-0.928,0.754-1.681,1.682-1.681h11.504C561.3,714.868,562.052,715.621,562.052,716.548L562.052,716.548z"/>
	<path fill="#45A0BC" d="M480.81,1060.144l-11.166,9.776c0,0-1.012,6.813,19.365,0l15.514-13.941
		C504.522,1055.979,478.866,1077.168,480.81,1060.144z"/>
	<path fill="#A7DEEC" d="M562.755,1052.193l21.137,16.665c0.426,8.666-4.326,8.666-7.617,9.333s-16.139-1.622-16.139-1.622
		l-8.932-7.254l-18.834-12.457v-7.334l25.773-5.333L562.755,1052.193z"/>
	<path fill="#45A0BC" d="M571.253,1061.457l10.348,8.464c0,0,1.012,6.813-19.365,0l-15.514-13.941
		C546.722,1055.979,573.198,1078.481,571.253,1061.457z"/>
	<path fill="#FFFFFF" d="M569.931,1041.855c0,6.628-5.373,12-12,12h-19.873c-6.627,0-12-5.372-12-12v-210.69c0-6.628,5.373-12,12-12
		h19.873c6.627,0,12,5.372,12,12V1041.855z"/>
	<path fill="#EDEBEB" d="M567.907,801.451v-47.06c0,0-21.6,54.574-29.98,62.926c0,0-6.262,0.515-9.369,1.316
		c-3.104,0.804-9.684,7.406-9.684,7.406l31.5,0.09C550.374,826.129,565.368,826.499,567.907,801.451z"/>
	<path fill="#FFFFFF" d="M486.925,927.524c0,0,3.191,14.971,17.598,8.985v109.712c0,0-14.988,3.697-15.793,0
		C487.927,1042.524,486.925,927.524,486.925,927.524z"/>
	<path fill="#FFFFFF" d="M505.368,677.368c16.672,7.548,57.775,2.801,54.814-0.219c-3.775-3.852-4.248-15.352-4.248-15.352
		s1.836-12.58,4.055-18.541s9.941-41.518,3.324-68.628c-4.25-17.416-36.877-22.745-49.305-16.745
		c-12.426,6-26.93,1.153-26.93,47.411c0,34.909,8.947,49.896,8.947,49.896l-3.131,21.959l7.398-3.783
		c0.547,1.023,1.158-0.896,1.766-0.003C503.087,674.875,504.194,676.206,505.368,677.368l4.07-6.117l4.57-9.453V648.19
		l-9.488-18.637l-4.227-15.188l1.176-15.052l7.969-10.87l13.965-5.48l14.166,2.67l10.426,7.795l4.965,10.734l-0.063,14.816
		l-4.902,17.531l-1.273,10.951l-5.559,9.358l-8.611,1.921l-6.813,0.004l-11.891-2.078l-4.41,8.227L505.368,677.368z"/>
	<path fill="#C89D2C" d="M510.954,620.191l10.465-4.278c0,0,3.711-3.666,9.975,0c6.264,3.668,14.566,7.8,16.748,8.328
		c2.18,0.527,3.551,17.286-1.254,21.801s-39.836,2.988-39.836,2.988s-11.711-10.528-5.582-23.346L510.954,620.191z"/>
	<circle fill="#E0DFDA" cx="526.676" cy="642.153" r="20.562"/>
	<circle fill="#C9C9C7" cx="526.474" cy="643.547" r="18.674"/>
	<path fill="#E0DFDA" d="M501.255,593.94l8.184-9.511l15.285-4.067l0.906-23.568c0,0-29.949,13.304-25.936,34.754
		C500.991,598.474,501.255,593.94,501.255,593.94z"/>
</g>
</svg>
